<?xml version="1.0" encoding="UTF-8" standalone="no"?>
<!-- Created with Inkscape (http://www.inkscape.org/) -->

<svg
   width="145.08238mm"
   height="115.82417mm"
   viewBox="0 0 145.08238 115.82417"
   version="1.1"
   id="svg5"
   xml:space="preserve"
   inkscape:version="1.2.2 (b0a8486541, 2022-12-01, custom)"
   sodipodi:docname="thing.svg"
   inkscape:export-filename="../f773f73f/orbit.png"
   inkscape:export-xdpi="96"
   inkscape:export-ydpi="96"
   xmlns:inkscape="http://www.inkscape.org/namespaces/inkscape"
   xmlns:sodipodi="http://sodipodi.sourceforge.net/DTD/sodipodi-0.dtd"
   xmlns="http://www.w3.org/2000/svg"
   xmlns:svg="http://www.w3.org/2000/svg"><sodipodi:namedview
     id="namedview7"
     pagecolor="#ffffff"
     bordercolor="#666666"
     borderopacity="1.0"
     inkscape:showpageshadow="2"
     inkscape:pageopacity="0.0"
     inkscape:pagecheckerboard="0"
     inkscape:deskcolor="#d1d1d1"
     inkscape:document-units="mm"
     showgrid="false"
     inkscape:zoom="0.84809203"
     inkscape:cx="213.42023"
     inkscape:cy="281.80904"
     inkscape:window-width="1366"
     inkscape:window-height="731"
     inkscape:window-x="0"
     inkscape:window-y="0"
     inkscape:window-maximized="1"
     inkscape:current-layer="layer1" /><defs
     id="defs2" /><g
     inkscape:label="Layer 1"
     inkscape:groupmode="layer"
     id="layer1"><path
       fill="#f2f2f2"
       d="m 35.678003,115.35167 c -1.85831,-0.85767 -3.04176,-2.69175 -3.04363,-4.71695 l -10e-4,-1.00068 -2.64167,-0.61288 c -1.452913,-0.33708 -3.505791,-0.89592 -4.561949,-1.24186 l -1.920284,-0.62899 -0.611412,0.57439 c -0.92587,0.86981 -2.56782,0.79132 -3.387788,-0.16195 -0.348225,-0.40499 -0.633245,-1.06209 -0.633245,-1.46023 0,-0.61887 -0.220675,-0.83144 -1.521354,-1.46541 C 11.270689,101.67115 6.1055,96.135138 3.768094,90.074048 c -0.933358,-2.42028 -1.810342,-6.1409 -1.818676,-7.71577 -0.0048,-0.90046 -0.11902,-1.13363 -0.680932,-1.38966 -0.37136395,-0.1692 -0.84921195,-0.72409 -1.06188395,-1.23309 -1.057837,-2.53176 2.20339795,-4.58326 3.96252795,-2.49265 0.927803,1.10263 0.897547,2.18909 -0.08842,3.17505 -0.425368,0.42537 -0.96115,0.7734 -1.190625,0.7734 -0.534551,0 -0.546798,1.12833 -0.04094,3.77219 1.551475,8.10883 7.038179,15.253212 14.66763,19.099112 l 1.417871,0.71473 0.647564,-0.60836 c 0.865949,-0.81351 2.506914,-0.83317 3.300554,-0.0395 0.312854,0.31286 0.642103,1.01964 0.731666,1.57064 0.183611,1.1296 -0.0506,1.02251 5.449056,2.49163 3.502007,0.9355 3.785197,0.94838 4.078257,0.18553 0.53051,-1.38094 2.2325,-2.63921 4.02469,-2.97543 2.34728,-0.44035 5.17176,1.45579 5.82901,3.91316 0.31719,1.18594 0.37022,1.23511 1.53267,1.42092 2.3625,0.37762 13.20132,0.19828 16.68225,-0.27603 4.01205,-0.54668 9.43529,-1.7201 13.36145,-2.89101 2.31734,-0.6911 2.89488,-0.9587 2.83416,-1.3132 -0.10492,-0.61248 0.63433,-1.97165 1.25223,-2.30234 0.87272,-0.46707 2.04745,-0.30884 2.87463,0.38718 l 0.7839,0.65962 3.21441,-1.32131 c 5.20133,-2.13805 5.84171,-2.51536 5.84171,-3.44196 0,-0.434112 -0.0629,-0.789292 -0.13983,-0.789292 -0.0769,0 -0.86065,0.36386 -1.74163,0.808582 -2.67782,1.35176 -6.3805,2.9239 -6.53125,2.77314 -0.1966,-0.19659 -0.26027,-0.16289 2.98876,-1.58212 4.2472,-1.855242 5.42395,-2.530082 5.42395,-3.110532 0,-0.70029 0.89053,-2.35525 1.6279,-3.02531 1.55468,-1.41275 4.00149,-1.83875 5.93089,-1.0326 0.90315,0.37736 0.9664,0.36235 2.438897,-0.57898 0.83143,-0.53151 2.50215,-1.67 3.71271,-2.52997 1.21055,-0.85997 2.27219,-1.4924 2.35919,-1.4054 0.087,0.087 0.10858,0.19835 0.048,0.24743 -0.55798,0.45169 -5.59695,3.90265 -6.26181,4.28841 -0.96294,0.55873 -1.02588,0.71146 -0.47993,1.16456 0.47318,0.39271 0.62487,0.31531 4.72735,-2.41213 5.13073,-3.41104 5.45398,-3.68266 5.4657,-4.59256 0.0199,-1.54841 1.24899,-2.44587 2.64322,-1.93011 0.51365,0.19001 0.96895,-0.0995 3.15094,-2.00341 5.16811,-4.50953 11.49609,-11.40746 14.58941,-15.90344 0.77643,-1.12851 0.81009,-1.26234 0.42462,-1.68829 -0.57924,-0.64004 -0.78174,-1.87448 -0.45022,-2.74441 0.39158,-1.0275 1.83225,-1.67967 2.89335,-1.30976 l 0.80744,0.28147 1.8431,-3.75156 c 1.61853,-3.29447 3.21263,-7.18576 3.21263,-7.84223 0,-0.12247 -0.39524,-0.45587 -0.8783,-0.74088 -0.48305,-0.28501 -1.07837,-0.93985 -1.32291,-1.45518 -1.20603,-2.54151 0.22979,-5.1919 3.06469,-5.65716 1.32937,-0.21817 1.38955,-0.50201 1.36641,-6.44464 -0.0167,-4.289486 -0.10365,-5.257386 -0.70311,-7.826976 -0.37622,-1.61271 -0.96296,-3.63452 -1.30385,-4.49292 l -0.61981,-1.56072 -1.11682,0.0808 c -0.90546,0.0655 -1.24347,-0.0458 -1.78594,-0.58829 -0.84293,-0.84292 -0.91211,-2.42954 -0.14829,-3.40059 l 0.52083,-0.66212 -1.97493,-2.12582 c -3.09155,-3.32775 -6.67884,-5.74483 -11.44014,-7.7082297 l -1.91567,-0.78996 -0.38256,0.73978 c -0.81394,1.5739897 -3.03064,2.2555897 -4.63766,1.4259897 -1.16232,-0.6000297 -2.12194,-2.0169597 -2.12194,-3.1331297 0,-0.84779 -0.023,-0.86373 -1.65365,-1.14532 -3.00569,-0.51905 -8.74895,-0.85494 -8.9537,-0.52366 -0.10153,0.16429 -0.26164,0.78046 -0.3558,1.36927 -0.25269,1.58025 -2.20549,3.4548897 -3.994977,3.8350897 -2.89641,0.61537 -5.69773,-0.9633497 -6.50795,-3.6676297 -0.17244,-0.57553 -0.46534,-1.04641 -0.6509,-1.04641 -0.78455,0 -7.89534,1.41152 -10.82365,2.14854 -5.53901,1.3941 -14.52374,4.6138297 -18.43044,6.6046397 -0.90928,0.46336 -0.95972,0.55461 -0.8322,1.50536 0.30824,2.29806 -2.44072,3.6486 -4.08326,2.00607 l -0.69998,-0.70001 -1.33852,0.74573 c -6.27731,3.49726 -13.01975,8.5224 -18.1235,13.50744 l -3.82038,3.73153 0.44695,0.94188 c 1.3978,2.945636 -0.51077,5.740376 -3.69571,5.411656 l -1.39939,-0.14443 -0.904361,1.50151 c -3.965943,6.58464 -6.280906,14.05091 -6.283954,20.26717 -0.0018,3.63453 0.803344,7.03631 2.462935,10.40627 l 1.139305,2.31348 1.252099,0.13229 c 2.012496,0.21263 3.010076,1.56076 2.383426,3.22095 -0.26096,0.69136 -0.20056,0.81606 0.8195,1.69187 2.52958,2.17186 6.34945,3.96597 10.44257,4.90464 4.64755,1.06581 12.55389,0.95667 18.5722,-0.25638 2.03333,-0.40984 2.25785,-0.51541 2.34172,-1.10112 0.40926,-2.85821 4.4725,-3.90767 6.31759,-1.63173 0.28499,0.35155 0.70777,0.25409 3.4394,-0.79281 3.11351,-1.19326 3.11451,-1.19392 3.27502,-2.18138 0.22284,-1.37092 1.23214,-2.31946 2.46804,-2.31946 0.53669,0 1.18629,0.1905 1.44357,0.42334 0.25728,0.23283 0.5903,0.42333 0.74004,0.42333 0.14974,0 1.50958,-0.74441 3.02187,-1.65425 8.2625,-4.97096 15.30544,-12.2738 19.641757,-20.36658 0.93176,-1.73893 0.94143,-1.78686 0.41723,-2.06741 -0.69676,-0.37289 -1.56441,-1.80496 -1.56567,-2.58415 -0.001,-0.82336 -0.42383,-0.51602 -0.61677,0.44867 -0.24759,1.23794 -1.592437,4.52789 -1.850897,4.52789 -0.12967,0 -0.15003,-0.20836 -0.0452,-0.46302 0.10479,-0.25467 0.51848,-1.35599 0.91932,-2.4474 3.234607,-8.80729 0.3591,-15.65807 -7.63422,-18.188186 -1.35371,-0.42849 -2.05221,-0.75678 -1.71649,-0.80672 0.92513,-0.13765 4.72587,1.478076 6.43275,2.734616 3.16967,2.33337 4.637647,5.40179 4.614657,9.64571 l -0.0136,2.51354 0.98196,-0.99219 c 0.92853,-0.9382 1.53643,-1.14731 2.9371,-1.01032 0.55995,0.0548 0.84463,-1.44967 0.82268,-4.34749 -0.0285,-3.77005 -1.54007,-6.71838 -4.51366,-8.804226 -2.303297,-1.61568 -4.976587,-2.5339 -8.983667,-3.08571 -1.05973,-0.14594 -1.12448,-0.11743 -1.12448,0.49498 0,0.3574 -0.28502,0.98118 -0.63338,1.38617 -0.90268,1.04943 -2.59306,1.04943 -3.49574,0 -0.34838,-0.40499 -0.6334,-1.03593 -0.6334,-1.40209 0,-0.65391 -0.027,-0.6627 -1.52135,-0.49469 -2.10794,0.23699 -4.33321,0.60108 -6.74687,1.1039 l -2.05052,0.42718 v 0.90812 c 0,0.65093 -0.21903,1.12715 -0.7734,1.68151 -1.08951,1.089516 -2.21006,1.050516 -3.30945,-0.11517 l -0.83803,-0.88858 -2.89738,1.25201 c -5.50575,2.379146 -9.06805,4.717036 -12.71983,8.347836 -2.68697,2.67154 -3.31689,3.61774 -2.77153,4.1631 0.86538,0.86538 -0.13128,2.83087 -1.43547,2.83087 -0.8197,0 -1.11103,0.66692 -1.5025,3.43958 -0.2198,1.55679 -0.20143,2.29789 0.0853,3.43933 l 0.36544,1.45497 0.99227,-0.0862 c 0.82054,-0.0713 1.13532,0.0569 1.81892,0.74049 0.74457,0.74456 0.81314,0.9466 0.69052,2.03445 l -0.13613,1.2078 1.6245,0.73384 c 2.31259,1.04466 4.37467,1.41946 7.70992,1.40134 8.66064,-0.047 17.70386,-5.48897 21.23194,-12.77674 1.83678,-3.79413 1.14569,-6.80511 -1.91248,-8.33238 -1.35896,-0.67867 -1.88247,-0.79085 -3.70417,-0.79375 -2.00346,-0.003 -4.63508,0.51208 -4.63508,0.90755 0,0.0994 0.34855,0.51462 0.77455,0.92276 1.18043,1.13092 1.95684,3.16119 1.98206,5.18296 0.018,1.44425 -0.12119,2.01494 -0.85538,3.5066 -2.91606,5.92458 -11.1755,5.83406 -14.04948,-0.15398 -0.77229,-1.60909 -0.77895,-1.61475 -0.98299,-0.83529 -0.94586,3.61307 0.82784,7.51493 3.61901,7.96125 1.10699,0.17702 1.70767,0.62873 0.83608,0.62873 -1.80312,0 -4.0188,-1.73592 -4.67545,-3.66308 -0.47195,-1.3851 -0.52998,-3.74151 -0.12484,-5.06992 0.15504,-0.50836 0.39247,-1.74848 0.52764,-2.75582 0.44257,-3.29845 1.95371,-5.44876 4.72384,-6.72189 1.90081,-0.87359 4.35224,-0.92534 6.12849,-0.12937 1.20888,0.54172 1.21396,0.54177 3.175,0.0292 2.47351,-0.64657 5.40947,-0.52474 7.27852,0.30203 1.58627,0.70169 2.13993,1.19293 2.79821,2.48272 1.70048,3.33184 0.22876,7.49887 -4.27609,12.10738 -4.94981,5.0637 -11.11986,7.72727 -17.99167,7.76689 -3.55198,0.0205 -5.64459,-0.38291 -8.05254,-1.55223 -1.03126,-0.50079 -1.87075,-0.7578 -2.06741,-0.63294 -0.72733,0.46182 -2.32671,0.23114 -2.98895,-0.4311 -0.74562,-0.74562 -0.88999,-2.34916 -0.27314,-3.0339 0.32533,-0.36114 0.32533,-0.61363 0,-1.86443 -0.49061,-1.88623 -0.45463,-3.6923 0.11722,-5.88439 0.38413,-1.4725 0.40566,-1.87817 0.12641,-2.38125 -0.18512,-0.33352 -0.34081,-0.82016 -0.34596,-1.08144 -0.0134,-0.67929 1.17567,-1.77391 1.92699,-1.77391 0.44166,0 0.8557,-0.31486 1.3478,-1.02496 0.96721,-1.39569 4.41614,-4.70525 6.47661,-6.2149 2.35838,-1.72791 6.29146,-3.88985 9.4374,-5.187556 2.39462,-0.98779 2.68667,-1.18267 2.91041,-1.94204 0.17449,-0.59219 0.54535,-0.98902 1.24277,-1.32979 0.9766,-0.47717 1.0144,-0.47587 2.15067,0.0742 l 1.15659,0.55989 3.2733,-0.6519 c 1.80031,-0.35855 4.10673,-0.73268 5.12537,-0.8314 1.48506,-0.14392 1.99847,-0.31662 2.59078,-0.87147 1.03329,-0.96794 2.65176,-0.96819 3.4841,-5.3e-4 0.44484,0.51716 0.95464,0.73912 2.02244,0.88054 9.924977,1.31454 14.915207,6.649866 13.773137,14.725646 -0.3011,2.12919 -0.29952,2.14082 0.36207,2.66123 2.77324,2.18143 1.22555,6.56139 -2.31851,6.56139 -0.62795,0 -0.99631,0.12397 -0.99631,0.33533 0,0.18443 -0.76265,1.61739 -1.69477,3.18434 -4.732427,7.95552 -11.655217,14.75542 -19.832567,19.48054 -1.74852,1.01034 -2.13777,1.34983 -2.07252,1.80756 0.12318,0.86394 -0.6267,2.06785 -1.51794,2.43701 -0.87853,0.3639 -2.01987,0.18831 -2.68798,-0.41354 -0.37006,-0.33335 -0.80896,-0.23078 -3.60241,0.84191 l -3.18101,1.22152 0.12615,1.11923 c 0.24798,2.20013 -1.33417,3.8499 -3.69389,3.85177 -1.01962,8e-4 -1.41887,-0.14942 -2.18517,-0.82224 -0.51568,-0.45277 -1.01192,-1.11933 -1.10275,-1.48124 -0.14496,-0.57756 -0.26597,-0.6369 -0.98983,-0.48537 -5.38232,1.12673 -13.32711,1.5373 -17.77539,0.9186 -4.61947,-0.64251 -9.51314,-2.60207 -12.49121,-5.00183 -1.55309,-1.2515 -1.67587,-1.30067 -2.891067,-1.15794 -1.107864,0.13013 -1.361538,0.0631 -1.996702,-0.52754 -0.791979,-0.73646 -0.968905,-1.99945 -0.442069,-3.15573 0.240761,-0.52841 0.139073,-0.89341 -0.648439,-2.32755 -2.025663,-3.68896 -3.322264,-9.47315 -2.95748,-13.19345 0.626765,-6.39214 3.173852,-13.78796 6.612086,-19.19909 l 0.840581,-1.32292 -0.610933,-0.89902 c -1.160193,-1.70729 -0.561398,-4.254256 1.216313,-5.173546 0.89641,-0.46355 2.3158,-0.53154 3.29831,-0.15799 0.5994,0.22789 0.80437,0.0964 2.16493,-1.38907 4.77252,-5.21059 12.19623,-11.02078 19.49857,-15.26064 2.38696,-1.3859 2.84428,-1.75517 2.84428,-2.29665 0,-1.42792 1.97701,-2.35681 3.51992,-1.65381 0.52015,0.237 0.86787,0.17185 1.93068,-0.36171 6.52255,-3.27449 18.61086,-7.0264897 26.73604,-8.2983697 l 2.95018,-0.46182 0.14529,-0.89532 c 0.44375,-2.73452 3.0439,-4.73776995 5.84766,-4.50525995 2.318767,0.19229 4.372927,1.88924995 4.818767,3.98081995 0.11294,0.52984 0.31545,0.7276 0.74506,0.7276 1.3295,0 7.51366,0.55864 8.85229,0.79966 1.43814,0.25894 1.43885,0.25873 2.18604,-0.64773 1.99183,-2.41644 5.25751,-1.68203 6.26516,1.40896 l 0.46499,1.42635 2.24056,0.96554 c 4.90411,2.1133797 7.77372,4.0915897 11.17211,7.7016797 1.73744,1.84568 2.38717,2.36846 2.94359,2.36846 0.97115,0 2.26082,1.31318 2.26082,2.30203 0,0.41537 -0.18322,1.01681 -0.40716,1.33652 -0.35636,0.50878 -0.36011,0.67291 -0.0301,1.31565 1.88629,3.67355 3.02219,12.74084 2.32931,18.593716 -0.16386,1.38414 -0.13662,1.47769 0.55775,1.9158 1.06768,0.67365 1.78138,2.00407 1.78253,3.32285 0.002,2.09187 -1.26033,3.59648 -3.26969,3.8978 l -1.11678,0.16748 -0.77587,2.29334 c -0.42673,1.26134 -1.6302,3.99038 -2.67438,6.06454 -1.04417,2.07415 -1.79145,3.83735 -1.6606,3.91822 0.13084,0.0809 0.23789,0.65502 0.23789,1.27591 0,1.34862 -0.71006,2.15705 -2.16954,2.47012 -0.81294,0.17438 -1.23494,0.57394 -2.73283,2.58747 -3.78181,5.08372 -8.7586,10.41074 -13.76572,14.73447 -2.53967,2.19304 -2.65594,2.33939 -2.55377,3.21452 0.18234,1.56186 -1.39558,2.54364 -2.84308,1.76897 -0.37688,-0.2017 -0.73436,-0.0663 -1.63625,0.61967 -1.36749,1.04012 -7.24555,4.9803 -8.10088,5.43018 -0.56493,0.29713 -0.57555,0.35515 -0.19843,1.0844 0.91011,1.75996 0.2996,4.866422 -1.22948,6.255902 -2.283747,2.07527 -6.041937,1.88163 -7.970797,-0.41069 -0.36819,-0.43757 -0.71537,-0.93337 -0.7715,-1.10178 -0.067,-0.20111 -0.64325,-0.036 -1.67895,0.48123 -0.86729,0.43308 -2.97587,1.35659 -4.68574,2.05224 -2.69389,1.09598 -3.10886,1.34558 -3.10886,1.86995 0,0.33282 -0.30823,0.97146 -0.68497,1.41918 -0.84978,1.0099 -2.29515,1.11933 -3.3917,0.25678 l -0.70845,-0.55727 -3.89129,1.08065 c -5.07904,1.41051 -7.98654,2.03665 -11.84705,2.55132 -3.97962,0.53055 -11.76806,0.76567 -15.66247,0.47282 l -2.98073,-0.22415 -0.24481,0.88662 c -0.82417,2.98492 -4.40644,4.58523 -7.28748,3.25554 z m 4.28025,-0.58097 c 2.73662,-1.32477 3.46655,-4.78391 1.50211,-7.11851 -0.94346,-1.12124 -2.07735,-1.65109 -3.5334,-1.65109 -2.07668,0 -3.81897,1.31113 -4.50515,3.39027 -0.65756,1.99244 0.41952,4.36683 2.43301,5.36348 1.44363,0.71458 2.65042,0.71924 4.10343,0.0159 z m -17.310974,-7.70251 c 1.085393,-1.25526 0.122327,-2.95095 -1.59426,-2.80704 -1.818439,0.15245 -2.229645,2.48313 -0.584158,3.31095 0.789681,0.39728 1.551576,0.22104 2.178418,-0.50391 z m 58.542154,0.31347 c 1.05369,-1.16432 0.2275,-3.17158 -1.30543,-3.17158 -1.54341,0 -2.39187,2.42408 -1.15233,3.29229 0.81109,0.56811 1.88198,0.51552 2.45776,-0.12071 z m 17.52437,-3.57855 c 1.312027,-0.5482 1.902067,-1.11232 2.480127,-2.37116 0.81928,-1.784132 0.4943,-4.111322 -0.76925,-5.508572 -1.263017,-1.39667 -3.681277,-1.87462 -5.544967,-1.09592 -1.31203,0.5482 -1.90208,1.11232 -2.48014,2.37116 -0.8832,1.92335 -0.44462,4.433452 1.00346,5.742962 1.34427,1.21563 3.59099,1.5801 5.31077,0.86153 z M 113.71119,89.242218 c 0.84683,-0.84683 0.28417,-2.23006 -0.90715,-2.23006 -0.77703,0 -1.32291,0.58549 -1.32291,1.41892 0,0.54801 0.73202,1.22692 1.32291,1.22692 0.27026,0 0.67847,-0.1871 0.90715,-0.41578 z m -46.526677,-1.14142 c 1.63555,-0.99736 1.83799,-3.25963 0.41379,-4.6241 -2.03995,-1.9544 -5.06509,-0.54598 -5.06509,2.35816 0,0.7454 0.20518,1.17081 0.89959,1.86522 1.06111,1.06111 2.42912,1.20723 3.75171,0.40072 z m 11.04266,-6.15533 c 0.77147,-0.40607 0.96591,-0.73844 0.97074,-1.65935 0.0112,-2.13098 -2.78964,-2.40818 -3.5205,-0.34843 -0.22326,0.62919 0.28205,1.66696 0.97505,2.00252 0.74884,0.36259 0.8949,0.36308 1.57471,0.005 z M 3.675452,80.012728 c 0.793388,-0.79339 0.821196,-1.44209 0.101062,-2.35759 -1.054054,-1.34002 -3.15579695,-0.5777 -3.15579695,1.14463 0,0.93327 0.88886795,1.86239 1.78170895,1.86239 0.342977,0 0.915839,-0.29224 1.273026,-0.64943 z m 25.135415,0 c 0.793386,-0.79339 0.821196,-1.44209 0.101063,-2.35759 -1.028745,-1.30784 -3.155797,-0.58547 -3.155797,1.07174 0,0.89584 0.954937,1.93528 1.77794,1.93528 0.345051,0 0.919606,-0.29224 1.276794,-0.64943 z M 134.83061,66.434648 c 0.58492,-0.51363 0.59846,-1.85304 0.0251,-2.48655 -0.43998,-0.48618 -1.81519,-0.64967 -2.36678,-0.28137 -0.67015,0.44748 -0.95324,1.41028 -0.63824,2.17074 0.53293,1.28662 1.88596,1.55777 2.97988,0.59718 z m -81.832707,-3.02029 c 0.29672,-0.31848 0.53948,-0.85968 0.53948,-1.20266 0,-0.77243 -1.10792,-1.92245 -1.85208,-1.92245 -0.76452,0 -1.85209,1.15818 -1.85209,1.97235 0,1.54533 2.08978,2.30655 3.16469,1.15276 z m 19.2874,-5.81775 c 2.46152,-1.18965 3.78225,-3.23137 3.95798,-6.11865 0.26257,-4.31396 -2.80462,-7.59253 -7.09548,-7.58448 -5.87676,0.011 -9.283,6.32593 -6.04721,11.21107 2.00301,3.024 5.89761,4.0807 9.18471,2.49206 z m 34.505967,-3.87248 c 1.02047,-1.02046 1.21052,-2.51328 0.4703,-3.69408 -0.60888,-0.97129 -1.45225,-1.38247 -2.83558,-1.38247 -1.33321,0 -2.73445,1.4168 -2.73445,2.76481 0,2.8993 3.10477,4.30671 5.09973,2.31174 z m -54.531487,-2.8686 c 0.54947,-0.49727 0.64081,-1.68057 0.16635,-2.15503 -0.77317,-0.77317 -2.32833,-0.0587 -2.32833,1.06963 0,0.66623 0.71845,1.52328 1.27694,1.52328 0.22065,0 0.61891,-0.19704 0.88504,-0.43788 z m 90.715417,-0.49264 c 2.40926,-1.24587 1.93057,-5.05517 -0.74229,-5.90701 -1.01728,-0.32421 -1.21672,-0.30585 -2.28259,0.21013 -2.23939,1.08407 -2.63553,3.57433 -0.83329,5.23834 1.06412,0.9825 2.51215,1.1546 3.85817,0.45854 z M 33.173123,41.102478 c 1.5189,-0.78545 1.99686,-2.74625 1.04857,-4.3016 -1.1628,-1.907166 -4.12436,-1.794316 -5.153789,0.19638 -1.407631,2.72205 1.383169,5.51285 4.105219,4.10522 z m 41.93983,-5.539746 c 0.7866,-0.7866 0.83536,-1.81047 0.12026,-2.52556 -1.09752,-1.09753 -3.175,-0.3106 -3.175,1.20265 0,0.81416 1.08757,1.97235 1.85209,1.97235 0.30427,0 0.84546,-0.29225 1.20265,-0.64944 z m 15.20151,-2.26098 c 0.89896,-0.89896 0.65013,-2.16829 -0.54636,-2.78702 -1.7498,-0.90485 -3.3672,1.08567 -2.21676,2.72815 0.53844,0.76873 2.02166,0.80033 2.76312,0.0589 z m 49.356817,-10.96818 c 0.35718,-0.35719 0.64943,-0.89838 0.64943,-1.20265 0,-0.76452 -1.15818,-1.85209 -1.97235,-1.85209 -0.9089,0 -1.73182,0.88007 -1.73182,1.85209 0,1.68952 1.84248,2.41491 3.05474,1.20265 z m -78.316667,-4.49792 c 0.35719,-0.35719 0.64944,-0.89838 0.64944,-1.20265 0,-0.73006 -1.14449,-1.85208 -1.88915,-1.85208 -0.84345,0 -1.81502,1.01057 -1.81502,1.88789 0,0.88634 0.91224,1.81627 1.78171,1.81627 0.34298,0 0.91584,-0.29224 1.27302,-0.64943 z M 100.44327,9.9187123 c 4.40363,-1.88418 3.46158,-8.54668 -1.316487,-9.31072995 -4.07052,-0.6509 -7.03664,4.09194995 -4.73457,7.57061995 1.23705,1.8693097 3.9355,2.6452997 6.051057,1.74011 z m 18.91752,-0.0403 c 1.15758,-0.46317 1.90992,-1.54967 1.90992,-2.75821 0,-3.0964 -3.93626,-4.19544 -5.54947,-1.54946 -0.69586,1.14135 -0.67623,2.04413 0.0685,3.15179 0.48527,0.72174 1.3681,1.26774 2.49902,1.5455497 0.0334,0.008 0.51584,-0.16714 1.072,-0.3896697 z M 54.595713,108.9726 c 0.3638,-0.11651 1.33997,-0.22371 2.16926,-0.23821 2.53006,-0.0443 11.53443,-1.3791 13.77189,-2.0416 0.25466,-0.0754 0.46302,-0.0234 0.46302,0.11545 0,0.3153 -6.31617,1.5431 -10.49419,2.03998 -3.44507,0.40971 -7.03696,0.4853 -5.90998,0.12438 z m -8.20208,-3.13388 c 0,-0.21451 0.96693,-0.30611 3.24115,-0.30707 1.78263,-8e-4 4.43177,-0.0633 5.88697,-0.13898 1.87198,-0.0974 2.47173,-0.0608 2.05056,0.12512 -0.91959,0.40587 -11.17868,0.70039 -11.17868,0.32093 z m 16.13958,-1.04863 c 0,-0.25501 3.16972,-0.67347 3.39499,-0.4482 0.23734,0.23735 -0.0609,0.32432 -1.74134,0.50774 -0.94591,0.10325 -1.65365,0.0778 -1.65365,-0.0595 z m -33.998955,-1.47653 c -3.460197,-1.00429 -3.958395,-1.18639 -3.767689,-1.37709 0.172031,-0.17203 7.095514,1.7333 7.458624,2.0526 0.45615,0.40111 -0.72867,0.18426 -3.690935,-0.67551 z m 40.084375,0.40045 c 0,-0.22043 1.32028,-0.58631 1.9513,-0.54076 0.36705,0.0265 -1.16175,0.74378 -1.62057,0.76033 -0.1819,0.007 -0.33073,-0.0922 -0.33073,-0.21957 z m -11.64167,-1.29533 c 0,-0.1266 1.45852,-0.37714 3.24115,-0.55674 9.03619,-0.91041 18.12634,-3.699432 27.79564,-8.528182 2.29987,-1.14854 4.24166,-2.08824 4.31509,-2.08824 1.02266,0 -5.76351,3.49764 -10.81466,5.57396 -4.06276,1.67003 -8.82643,3.194992 -12.67091,4.056282 -4.63168,1.03763 -11.86631,1.97832 -11.86631,1.54292 z m 16.28511,-0.0419 c 0.38703,-0.37858 1.70656,-0.64367 1.70656,-0.34285 0,0.26226 -0.85028,0.57828 -1.57427,0.5851 -0.24021,0.002 -0.28967,-0.0883 -0.13229,-0.24225 z m -32.82157,-0.20461 c -6.78184,-0.46395 -13.905415,-2.186292 -18.388536,-4.445982 -7.029274,-3.54307 -11.75354,-10.29976 -12.953662,-18.52647 -0.169244,-1.16016 -0.368024,-2.31773 -0.441732,-2.57239 -0.07371,-0.25466 -0.02326,-0.46302 0.112097,-0.46302 0.135362,0 0.388857,0.92273 0.563322,2.05052 0.935215,6.04547 3.064712,10.69354 6.620595,14.45081 5.117193,5.40702 13.835546,8.494392 25.622436,9.073512 1.93367,0.095 3.5778,0.27313 3.65363,0.39582 0.13195,0.2135 -1.9722,0.22985 -4.78815,0.0372 z M 17.008615,98.510648 c -2.280883,-1.53492 -4.343298,-3.45327 -5.896701,-5.48481 -1.84095,-2.40759 -4.083225,-7.07195 -3.399662,-7.07195 0.136415,0 0.397584,0.53416 0.580377,1.18703 0.900038,3.21463 5.1276,8.45514 8.779129,10.88267 0.992865,0.66006 1.805209,1.25049 1.805209,1.31208 0,0.29439 -0.595982,0.0312 -1.868352,-0.82502 z m 25.307338,0.10692 c -1.73341,-0.12411 -3.21177,-0.28577 -3.28525,-0.35925 -0.31966,-0.31966 0.25223,-0.34555 2.73558,-0.12385 3.63243,0.32429 12.84732,0.31143 16.5336,-0.0231 3.25818,-0.29566 6.63566,-0.80839 9.71532,-1.47488 2.10084,-0.45465 3.24217,-0.352 1.48552,0.13361 -2.08941,0.57759 -8.69598,1.58427 -12.24592,1.86597 -4.04671,0.32112 -10.30336,0.31336 -14.93885,-0.0185 z m -14.17857,-2.1821 c -8.330164,-3.48358 -13.552768,-9.14511 -15.349506,-16.63952 -0.588382,-2.45422 -0.642899,-3.10248 -0.26091,-3.10248 0.145521,0 0.266624,0.32742 0.269118,0.72761 0.0074,1.18252 0.937272,4.42163 1.796542,6.25785 2.404876,5.1391 7.263935,9.66154 12.85594,11.96532 1.179214,0.48581 2.285826,0.88547 2.459136,0.88813 0.17331,0.003 0.3887,0.1239 0.47864,0.26943 0.27077,0.43811 -0.70562,0.27907 -2.24896,-0.36634 z m 17.72708,-0.074 c -4.81768,-0.3369 -9.42894,-1.17827 -12.86501,-2.34735 -2.24944,-0.76535 -6.714153,-2.98944 -6.714153,-3.34466 0,-0.31893 -0.02349,-0.32842 2.673937,1.08048 5.447146,2.84512 12.383046,4.25808 20.902016,4.25808 2.09797,0 3.41155,0.10187 3.41155,0.26458 0,0.24728 -4.39002,0.29994 -7.40834,0.0889 z m 1.45521,-4.05762 c -0.32051,-0.13773 1.53132,-0.23472 4.69636,-0.24599 3.31969,-0.0118 5.22552,0.0779 5.22552,0.24599 0,0.32853 -9.15735,0.32853 -9.92188,0 z m -6.48229,-0.39395 c -9.814,-1.96434 -16.810263,-7.34085 -20.231015,-15.5472 -0.573749,-1.37641 -0.07296,-1.2534 0.538548,0.1323 3.483765,7.89432 10.239627,13.05442 19.499107,14.89333 1.27052,0.25232 2.31003,0.56154 2.31003,0.68714 0,0.26797 0.081,0.27431 -2.11667,-0.16557 z m 45.88241,-1.15667 c 0.0774,-0.12523 1.24903,-0.88908 2.60361,-1.69743 4.95585,-2.95742 10.61679,-7.33102 15.498887,-11.97433 2.60385,-2.4765 7.09397,-7.6026 8.51092,-9.71641 0.60559,-0.90342 1.05833,-1.25249 1.05833,-0.81598 0,0.69168 -5.32629,6.93231 -8.90705,10.43607 -4.87917,4.77424 -9.434927,8.36974 -15.105577,11.92161 -3.09909,1.94115 -3.99797,2.39474 -3.65912,1.84647 z m 18.292277,-1.59542 c 0.13824,-0.12959 1.44197,-1.13413 2.89718,-2.2323 1.45521,-1.09818 3.59726,-2.82877 4.76012,-3.84576 1.95285,-1.70789 2.83225,-2.2457 1.96668,-1.20275 -1.06489,1.28311 -8.97478,7.51643 -9.53812,7.51643 -0.20895,0 -0.24161,-0.0896 -0.0859,-0.23562 z m -28.455937,-1.33405 c 0,-0.15533 0.12804,-0.28241 0.28454,-0.28241 0.69298,0 6.44815,-2.99804 8.97587,-4.67579 3.74328,-2.48456 7.04388,-5.25761 11.67988,-9.81303 2.13106,-2.09403 3.947707,-3.68912 4.036987,-3.54466 0.17772,0.28756 -6.649587,6.89094 -10.028317,9.6994 -3.09444,2.57214 -8.00696,5.79171 -11.07608,7.25902 -3.11061,1.48716 -3.87288,1.75434 -3.87288,1.35747 z m -56.315208,-2.31474 c -3.411226,-4.30294 -5.927831,-12.31886 -5.841108,-18.60517 0.0227,-1.6453 0.464428,-0.60216 0.489804,1.15667 0.03559,2.46668 0.852631,6.93114 1.78328,9.74414 1.022631,3.09103 2.181718,5.24232 4.121456,7.64951 0.691685,0.85837 1.25761,1.61961 1.25761,1.69164 0,0.43997 -0.580777,-0.0849 -1.811042,-1.63679 z m 93.621455,-1.09784 c 0,-0.12085 0.55953,-0.62155 1.2434,-1.11267 0.68387,-0.49112 2.88876,-2.49344 4.89977,-4.4496 2.011,-1.95616 3.74342,-3.46598 3.84982,-3.35515 0.316,0.32913 -9.16946,9.13715 -9.8399,9.13715 -0.0842,0 -0.15309,-0.0989 -0.15309,-0.21973 z m -66.939577,-0.83339 c -3.57631,-0.34554 -6.76109,-1.22058 -9.76397,-2.68271 -4.7787,-2.32681 -7.8821,-6.09064 -9.136512,-11.08083 -0.533357,-2.12175 -0.831913,-6.69935 -0.527854,-8.09328 0.177864,-0.8154 0.263292,-0.19324 0.402847,2.9339 0.265255,5.9439 1.502619,9.27631 4.618659,12.4387 4.02963,4.08958 10.44232,6.23642 18.30963,6.1297 1.92827,-0.0262 3.50584,0.0417 3.50573,0.15087 -1.1e-4,0.10914 -0.38715,0.19929 -0.8601,0.20032 -0.47294,10e-4 -1.6338,0.0511 -2.57968,0.11126 -0.94589,0.0601 -2.73183,0.0116 -3.96875,-0.10793 z m 48.68333,-3.90348 c 2.65974,-2.2466 9.399587,-9.16056 11.590457,-11.88987 1.18818,-1.4802 2.99395,-3.97191 4.01282,-5.53714 1.73399,-2.66382 4.24047,-7.41103 4.24047,-8.03134 0,-0.15219 0.11906,-0.27671 0.26458,-0.27671 0.4153,0 0.33886,0.22659 -1.05205,3.11896 -3.40157,7.07345 -9.82632,15.04944 -17.589617,21.83658 -1.27831,1.11758 -2.45868,2.02672 -2.62304,2.02032 -0.16436,-0.006 0.35601,-0.56475 1.15638,-1.2408 z m -37.04167,-0.25202 c 0,-0.13289 0.98227,-0.38423 2.18281,-0.55854 6.52923,-0.94798 14.13328,-3.71298 19.6442,-7.14307 1.39072,-0.8656 2.03098,-0.89405 0.92321,-0.041 -1.45443,1.11996 -8.53016,4.45036 -11.63772,5.47763 -4.31802,1.4274 -11.1125,2.81229 -11.1125,2.265 z m -15.61041,-0.76328 c -5.48263,-1.43483 -9.83566,-5.48816 -11.20361,-10.43226 -0.5845,-2.11253 -0.8164,-4.23334 -0.46289,-4.23334 0.15918,0 0.28941,0.35133 0.28941,0.78073 0,2.8761 1.69717,6.75475 4.00918,9.16247 1.85221,1.92889 5.13708,3.77938 7.74487,4.36297 0.81132,0.18157 1.47512,0.43024 1.47512,0.5526 0,0.27913 -0.0787,0.27092 -1.85208,-0.19317 z m 78.433597,-3.72467 c 2.26931,-2.27718 4.19891,-4.06743 4.28801,-3.97834 0.21355,0.21355 -7.65881,8.11866 -8.08502,8.11866 -0.18096,0 1.5277,-1.86314 3.79701,-4.14032 z m -11.22944,3.34572 c 0,-0.146 1.08608,-1.42592 2.4135,-2.84428 3.34309,-3.5721 7.45295,-8.75921 10.48106,-13.2283 1.40506,-2.07368 2.65748,-3.77032 2.78316,-3.77032 0.29191,0 0.28188,0.0166 -2.4836,4.10104 -1.28086,1.89178 -3.41126,4.80881 -4.73422,6.4823 -2.22619,2.81602 -8.10999,9.525 -8.35346,9.525 -0.0585,0 -0.10644,-0.11945 -0.10644,-0.26544 z m -61.515617,-1.61318 c -2.61005,-0.37255 -5.78262,-1.48738 -7.504,-2.63687 -3.20428,-2.13973 -5.74718,-5.94087 -6.80281,-10.16889 -0.60442,-2.42079 -0.61392,-6.57123 -0.0203,-8.86354 0.5048,-1.94933 1.9575,-5.0994 2.26424,-4.90982 0.11168,0.069 -0.19627,0.93407 -0.68432,1.92234 -3.06138,6.19908 -1.65921,14.83862 3.2063,19.75565 3.14268,3.17597 7.25514,4.59866 13.37734,4.62785 1.96453,0.009 4.58391,-0.14093 5.82083,-0.33398 1.23693,-0.19306 2.29857,-0.30802 2.35921,-0.25548 0.27851,0.24133 -0.37436,0.40401 -3.05115,0.76025 -3.14275,0.41825 -6.4854,0.45646 -8.96535,0.10249 z m 66.290697,-0.39822 c -0.007,-0.16086 0.6795,-1.05383 1.52536,-1.98438 1.92215,-2.11458 5.05892,-5.91919 6.79644,-8.24345 0.7276,-0.97331 1.42213,-1.77262 1.5434,-1.77624 0.40266,-0.012 0.0684,0.46582 -3.17859,4.54437 -3.49014,4.38394 -6.66648,7.92752 -6.68661,7.4597 z m -35.466737,-1.00388 c 0,-0.0893 0.80367,-0.67859 1.78593,-1.30957 2.92086,-1.87628 5.83469,-4.3043 9.017,-7.51364 1.64875,-1.66275 3.06119,-2.95972 3.13876,-2.88215 0.22813,0.22812 -5.15742,5.63746 -7.4594,7.49237 -3.17638,2.55948 -6.48229,4.70807 -6.48229,4.21299 z m -29.23646,-0.71889 c -8.31712,-1.20978 -13.63933,-6.95833 -13.68922,-14.78581 -0.016,-2.50831 0.39134,-4.7625 0.86057,-4.7625 0.14737,0 0.13622,0.2936 -0.0275,0.7242 -0.15143,0.39832 -0.33884,1.67824 -0.41646,2.84428 -0.55802,8.38306 5.43127,14.90371 14.38436,15.66052 1.06203,0.0898 1.93096,0.26482 1.93096,0.38899 0,0.2666 -0.86736,0.24674 -3.04271,-0.0697 z m 2.08375,-1.85894 c -6.92687,-0.48778 -11.48028,-3.75977 -12.95851,-9.31171 -1.07276,-4.02909 0.0858,-10.62385 2.57366,-14.64922 0.91352,-1.47811 0.90591,-0.74215 -0.0101,0.97645 -3.63449,6.81901 -3.42902,14.14334 0.51505,18.35956 1.73516,1.85489 3.89592,3.06171 6.80823,3.80251 1.3606,0.34609 2.83117,0.44704 6.22245,0.42715 2.44244,-0.0143 4.38,0.0348 4.30569,0.10907 -0.26743,0.26743 -5.09282,0.45264 -7.45647,0.28619 z m -33.431001,-2.54197 c -0.432008,-1.98106 -0.696406,-11.12312 -0.332225,-11.4873 0.181441,-0.18144 0.265557,1.13207 0.259681,4.05503 -0.0078,3.89202 0.186199,6.06859 0.733279,8.22602 0.106662,0.42062 0.07619,0.7276 -0.07223,0.7276 -0.141207,0 -0.406032,-0.68461 -0.588501,-1.52135 z m -7.510325,0.12959 c -0.514641,-3.71525 -0.482179,-9.72052 0.05254,-9.72085 0.09672,-6e-5 0.137706,1.51799 0.09107,3.37344 -0.04664,1.85545 0.02184,4.24259 0.152163,5.30476 0.130326,1.06217 0.152054,1.98368 0.04828,2.04782 -0.103769,0.0641 -0.258597,-0.3882 -0.344062,-1.00517 z m 42.215896,0.31425 c -7.96827,-1.0345 -12.06886,-5.4691 -11.60338,-12.54853 0.0861,-1.30969 0.23419,-2.64914 0.32907,-2.97656 0.26937,-0.92962 0.64968,-0.69824 0.43489,0.26458 -0.1055,0.47294 -0.18921,2.22911 -0.18602,3.9026 0.005,2.72826 0.0782,3.19847 0.70649,4.54991 1.78826,3.84663 5.90391,6.08172 11.92157,6.47425 1.41882,0.0926 2.57968,0.26936 2.57968,0.39289 0,0.26758 -1.86941,0.24115 -4.1823,-0.0591 z m 3.61381,-2.38176 c -5.69049,-0.49789 -9.26958,-2.94262 -10.70242,-7.3104 -0.55826,-1.70177 -0.71959,-6.98829 -0.238,-7.79878 0.18457,-0.31061 0.26419,0.64571 0.26434,3.175 2.6e-4,4.29618 0.45408,5.78599 2.43293,7.98696 1.89177,2.10409 3.94312,2.98645 8.1792,3.51813 3.01969,0.37901 3.0663,0.69177 0.0639,0.42909 z m 18.03099,-2.83543 c 0,-0.14277 0.82904,-0.7521 1.84232,-1.35408 3.99394,-2.37275 6.69237,-4.97685 8.60515,-8.30432 1.06029,-1.84447 1.13745,-1.31396 0.0952,0.65477 -1.03907,1.96278 -4.1415,5.21162 -6.44166,6.74565 -2.45434,1.63687 -4.10104,2.54351 -4.10104,2.25798 z m 32.286277,-3.05711 c -0.004,-0.12303 0.66572,-1.2349 1.48808,-2.47082 0.82235,-1.23593 1.96571,-3.33792 2.54078,-4.67111 3.76685,-8.73262 2.87338,-15.30139 -2.85533,-20.992346 -1.89273,-1.88025 -2.57307,-2.35482 -5.18533,-3.61698 -3.881007,-1.87518 -5.808817,-2.33949 -10.547397,-2.54032 -3.03824,-0.12876 -3.62114,-0.20986 -2.8016,-0.38976 1.49547,-0.32828 6.01279,0.009 8.61092,0.64285 2.370957,0.57847 6.404527,2.37794 7.949017,3.54625 0.50932,0.38528 1.61178,1.37117 2.44991,2.19088 5.50365,5.382646 6.51474,12.247206 3.051,20.713996 -0.44781,1.09462 -1.33951,2.88318 -1.98157,3.97459 -1.1727,1.99344 -2.7052,4.03007 -2.71848,3.61277 z m -21.242867,-0.59506 c -0.087,-0.087 0.23774,-0.71222 0.72155,-1.38947 2.76792,-3.87462 3.86619,-6.76365 4.03879,-10.62408 0.10824,-2.421 0.0482,-2.97943 -0.46716,-4.34414 -1.37771,-3.64836 -4.81125,-5.71002 -9.50963,-5.71002 -2.16859,0 -5.31247,0.46919 -7.33997,1.09542 -1.72282,0.53213 -2.66139,0.49467 -1.23566,-0.0493 1.5487,-0.5909 3.74066,-1.06518 6.25949,-1.35437 7.57805,-0.87007 12.37526,2.4751 12.82724,8.94464 0.17963,2.57112 -0.48527,5.4692 -1.93391,8.42925 -1.21784,2.48845 -3.08915,5.27368 -3.36074,5.00209 z m 29.438827,-2.54781 c -5.3e-4,-0.10535 0.36579,-1.11485 0.81407,-2.24333 2.24663,-5.65558 2.89391,-10.92773 1.86801,-15.21527 -1.37508,-5.746916 -4.94198,-10.716806 -9.91686,-13.817516 -3.13626,-1.95474 -7.62812,-3.31712 -10.956307,-3.32303 -0.63097,-0.001 -1.12448,-0.12803 -1.12448,-0.28916 0,-0.39593 3.54112,-0.0534 6.085407,0.58859 11.33066,2.85914 18.74163,14.381786 16.42986,25.545286 -0.61331,2.96165 -1.87806,6.78005 -2.68297,8.10014 -0.28366,0.46522 -0.51619,0.75965 -0.51673,0.65429 z m -21.952027,-0.29647 c -0.005,-0.1229 0.41595,-1.46823 0.9358,-2.98963 3.37545,-9.87876 0.45556,-16.61974 -8.01523,-18.50431 -1.54419,-0.34355 -2.71164,-0.41352 -4.94986,-0.29667 -2.2945,0.11979 -2.8144,0.0863 -2.39988,-0.1544 0.32563,-0.18911 1.75044,-0.30245 3.70417,-0.29467 2.76816,0.011 3.45592,0.10826 5.36728,0.75888 2.64068,0.89887 4.59023,2.20677 5.93486,3.98154 2.4748,3.26647 2.83339,8.31345 0.99196,13.96126 -0.72956,2.23759 -1.54638,4.07937 -1.5691,3.538 z m 38.575087,-3.21674 c -0.0731,-0.0731 0.57409,-1.88879 1.43817,-4.0349 0.86408,-2.1461 1.93723,-5.27122 2.38478,-6.94471 0.74797,-2.79686 0.81527,-3.39875 0.83284,-7.44921 0.0105,-2.423576 0.0941,-4.360146 0.18579,-4.303496 0.0917,0.0566 0.24797,1.20615 0.34734,2.55442 0.34817,4.724276 -0.72409,9.873136 -3.45248,16.578456 -1.57357,3.86721 -1.53943,3.79645 -1.73644,3.59944 z M 11.849805,54.336118 c 0.443951,-3.29165 3.217799,-11.50937 3.884929,-11.50937 0.321629,0 0.327177,-0.0189 -0.583053,1.98854 -1.132169,2.49695 -2.231997,5.97758 -2.632222,8.33021 -0.387356,2.27697 -0.951437,3.27989 -0.669654,1.19062 z m 76.032908,-5.19685 c -0.1346,-2.86988 -0.67621,-4.19506 -2.24211,-5.4858 -1.35534,-1.11718 -3.00476,-1.62047 -5.31076,-1.62047 -1.38652,0 -1.89917,-0.0869 -1.76772,-0.29956 0.31409,-0.50821 4.27892,-0.12383 5.721,0.55463 2.63662,1.24047 4.18414,3.88508 4.17521,7.13514 -0.007,2.59152 -0.45103,2.37255 -0.57562,-0.28394 z m -53.39533,-3.09673 c 0,-0.87613 6.96114,-10.101166 7.33794,-9.724376 0.0798,0.0798 -0.31816,0.694216 -0.88442,1.365306 -1.99621,2.36575 -4.28361,5.47009 -5.16507,7.00977 -0.81647,1.42616 -1.28845,1.92044 -1.28845,1.3493 z m 88.029197,-3.12353 c -0.52783,-9.523916 -5.88071,-17.018356 -14.07816,-19.710506 -1.21975,-0.40058 -1.65526,-0.63868 -1.27559,-0.69739 0.31708,-0.049 1.38568,0.23457 2.37468,0.63023 7.67733,3.07142 12.42091,9.69604 13.35423,18.649806 0.21563,2.06861 0.23187,3.19779 0.0507,3.5216 -0.198,0.35381 -0.30774,-0.26307 -0.42582,-2.39374 z m 5.64259,1.6143 c 0.005,-0.13825 0.17952,-1.02526 0.38758,-1.97114 0.48631,-2.21089 0.49257,-6.516586 0.0128,-8.780436 -0.84189,-3.97232 -2.54891,-7.07417 -5.56903,-10.11956 -3.35934,-3.38745 -6.90599,-5.13992 -12.86959,-6.3591 -4.76561,-0.97426 -10.00501,-1.35128 -13.880317,-0.99881 -3.06667,0.27893 -3.56434,0.26 -3.18329,-0.12105 0.33946,-0.33945 9.577527,-0.41626 12.247897,-0.10183 8.30964,0.97844 13.52182,3.00323 17.57609,6.82783 5.35043,5.04733 7.75159,13.02071 6.04278,20.065926 -0.28664,1.18174 -0.78881,2.20472 -0.7649,1.55817 z m -79.457317,-1.60363 c 1.04715,-1.46986 2.66776,-3.14402 2.86077,-2.9553 0.10707,0.10468 -0.49431,0.93812 -1.33641,1.85208 -1.65166,1.79262 -2.40275,2.33621 -1.52436,1.10322 z m 77.213007,-2.81491 c -0.056,-0.1819 -0.16785,-1.28323 -0.24865,-2.4474 -0.38139,-5.495236 -3.13191,-10.888546 -7.00174,-13.729266 -0.70336,-0.51631 -1.98227,-1.29485 -2.84202,-1.7301 -0.85976,-0.43525 -1.34174,-0.79612 -1.07107,-0.80193 1.08959,-0.0234 3.78934,1.73304 5.86178,3.81363 2.45501,2.46468 3.71723,4.64643 4.75004,8.21043 0.64966,2.24185 1.21689,7.015366 0.83362,7.015366 -0.0991,0 -0.226,-0.14883 -0.28196,-0.33073 z m 6.41424,-2.24896 c 0.12539,-2.666756 -0.47947,-6.677716 -1.2799,-8.487226 -0.50621,-1.14436 -0.48798,-1.89306 0.0267,-1.09625 1.01428,1.5703 1.96324,7.43337 1.66498,10.286916 -0.25305,2.42107 -0.53596,1.93776 -0.41176,-0.70344 z m -86.993797,0.24513 c 0,-0.3207 2.71446,-2.860486 5.42275,-5.073766 5.4593,-4.46149 14.57436,-9.63923 22.22856,-12.62675 4.06436,-1.58638 4.62836,-1.76682 4.6263,-1.48015 -8e-4,0.11895 -1.10219,0.61793 -2.4474,1.10885 -10.48409,3.82603 -19.73112,9.28762 -27.51511,16.2513 -1.27331,1.139116 -2.3151,1.958356 -2.3151,1.820516 z m 9.78997,-1.45236 c 0.82051,-0.763596 5.60125,-3.885996 5.94991,-3.885996 0.49642,0 -0.063,0.55292 -1.16796,1.15429 -0.71669,0.39007 -2.21221,1.36149 -3.32337,2.15872 -2.27705,1.633706 -2.83303,1.852116 -1.45858,0.572986 z m -8.46706,-5.152136 c 0,-0.4364 4.76418,-4.2453 8.03999,-6.42789 3.14417,-2.09486 3.60168,-2.32745 3.60168,-1.83097 0,0.14552 -0.10564,0.26459 -0.23475,0.26459 -0.4227,0 -6.02921,3.86389 -8.1101,5.5893 -2.86541,2.37593 -3.29682,2.69063 -3.29682,2.40497 z m 88.911837,-3.5625 c -1.52091,-5.08238 -5.98278,-10.12779 -11.19647,-12.66079 -1.42681,-0.6932 -1.71106,-1.19672 -0.35595,-0.63051 3.28586,1.37292 7.16934,4.63256 9.39678,7.88727 0.9451,1.38099 2.498,4.62643 2.77563,5.8009 0.27727,1.1729 -0.25153,0.8344 -0.61999,-0.39687 z m -66.269337,-2.01716 c -0.27477,-0.44458 5.54794,-2.62159 8.85593,-3.31109 2.89135,-0.60265 2.36732,-0.11487 -0.69372,0.64574 -2.86971,0.71307 -5.64191,1.66461 -7.2058,2.47333 -0.44809,0.23171 -0.87848,0.31812 -0.95641,0.19202 z m 12.95719,-0.81017 c 0.4583,-0.45154 9.11489,-1.48411 9.11489,-1.08724 0,0.1179 -0.92273,0.29521 -2.05052,0.394 -1.12778,0.0988 -3.15056,0.35091 -4.49506,0.56025 -2.89228,0.45034 -2.89137,0.4503 -2.56931,0.13299 z m 44.436147,-2.35934 c -4.61103,-4.45395 -10.07416,-7.21794 -16.3374,-8.26569 -1.12779,-0.18866 -2.05052,-0.43886 -2.05052,-0.55601 0,-0.2857 0.14105,-0.27552 2.57222,0.18566 3.74189,0.70983 8.23465,2.46595 11.36615,4.44278 2.65617,1.67676 7.33004,5.99293 6.92654,6.39643 -0.053,0.053 -1.16764,-0.93842 -2.47699,-2.20317 z m -28.045207,-1.39343 c -1.30969,-0.12006 -4.01836,-0.14679 -6.01927,-0.0594 -2.61842,0.11436 -3.63803,0.0752 -3.63803,-0.13961 0,-0.21135 1.48699,-0.29782 5.09323,-0.29619 5.3491,0.002 7.871357,0.18305 7.871357,0.56372 0,0.12525 -0.20836,0.21019 -0.46302,0.18875 -0.25466,-0.0214 -1.534587,-0.1372 -2.844267,-0.25726 z m -34.79271,-1.1262 c 0,-0.37524 6.84118,-3.34006 7.70704,-3.34006 0.62644,0 -0.045,0.33447 -3.52063,1.75376 -1.93872,0.79168 -3.67378,1.5076 -3.85568,1.59093 -0.1819,0.0833 -0.33073,0.0812 -0.33073,-0.005 z m 40.613537,-1.11071 c -1.16417,-0.18885 -2.89057,-0.46347 -3.83646,-0.61027 -1.690347,-0.26233 -1.676757,-0.26497 0.79375,-0.15426 2.91049,0.13044 5.82083,0.60278 5.82083,0.9447 0,0.27248 0.0203,0.2738 -2.77812,-0.18017 z m -29.236457,-3.52591 c 0.64574,-0.36144 5.71925,-1.55126 8.99583,-2.10967 4.33817,-0.73934 5.00236,-0.81658 5.13775,-0.59752 0.0662,0.10711 -1.56873,0.45737 -3.63317,0.77835 -2.06444,0.32099 -5.18228,0.93895 -6.92853,1.37326 -3.2824,0.81636 -4.3285,0.97908 -3.57188,0.55558 z m 42.068747,-3.23736 c -1.35253,-0.54604 -5.50588,-1.27358 -9.03641,-1.5829 -2.00296,-0.17548 -3.59218,-0.39925 -3.53161,-0.49726 0.42988,-0.6955597 12.80306,1.18704 13.70058,2.08456 0.37727,0.37726 -0.19268,0.37505 -1.13256,-0.004 z"
       id="path302" /></g></svg>
